<svg xmlns="http://www.w3.org/2000/svg" width="1472" height="1473" fill="none" viewBox="0 0 1472 1473" id="win">
  <path fill="#F25022" fill-rule="evenodd" d="M457.125 1473H140.875C129.375 1473 120.75 1464.37 120.75 1452.86V1029.95C120.75 1018.44 129.375 1009.81 140.875 1009.81H457.125C468.625 1009.81 477.25 1018.44 477.25 1029.95C477.25 1041.46 477.25 1441.35 477.25 1452.86C477.25 1464.37 468.625 1473 457.125 1473Z" clip-rule="evenodd"></path>
  <path fill="#AC352D" fill-rule="evenodd" d="M457.125 1473H434.125C431.25 1467.25 428.375 1461.49 428.375 1452.86V1009.81H457.125C468.625 1009.81 477.25 1018.44 477.25 1029.95C477.25 1041.46 477.25 1441.35 477.25 1452.86C477.25 1464.37 468.625 1473 457.125 1473Z" clip-rule="evenodd"></path>
  <path fill="#1992C9" fill-rule="evenodd" d="M1331.12 1473H937.25C925.75 1473 917.125 1464.37 917.125 1452.86C917.125 1441.35 917.125 926.379 917.125 914.871C917.125 903.363 925.75 894.732 937.25 894.732H1331.12C1342.62 894.732 1351.25 903.363 1351.25 914.871V1452.86C1351.25 1464.37 1342.62 1473 1331.12 1473Z" clip-rule="evenodd"></path>
  <path fill="#1576A3" fill-rule="evenodd" d="M957.375 1473H937.25C925.75 1473 917.125 1464.37 917.125 1452.86C917.125 1441.35 917.125 926.379 917.125 914.871C917.125 903.363 925.75 894.732 937.25 894.732H966V1452.86C966 1461.49 963.125 1467.25 957.375 1473Z" clip-rule="evenodd"></path>
  <path fill="#FFC54D" fill-rule="evenodd" d="M851 437.297C845.25 437.297 839.5 434.42 833.75 434.42C828 434.42 825.125 428.666 825.125 420.035C828 414.281 833.75 411.404 839.5 411.404C859.625 417.158 882.625 408.527 908.5 391.266C934.375 371.127 960.25 339.481 977.5 302.08C1017.75 224.402 1017.75 140.971 977.5 120.832C960.25 112.201 934.375 117.955 905.625 135.217C899.875 140.971 894.125 138.094 891.25 132.34C885.5 129.463 888.375 120.832 894.125 117.955C928.625 92.0626 963.125 86.3087 989 100.693C1040.75 129.463 1043.62 221.525 997.625 313.588C960.25 388.389 899.875 437.297 851 437.297Z" clip-rule="evenodd"></path>
  <path fill="#FFD03B" fill-rule="evenodd" d="M546.25 437.297C494.5 437.297 437 388.389 396.75 313.588C350.75 221.525 353.625 129.463 405.375 100.693C434.125 86.3087 465.75 92.0626 503.125 117.955C506 120.832 508.875 129.463 506 132.34C500.25 138.094 494.5 140.971 488.75 135.217C462.875 117.955 434.125 112.201 416.875 120.832C376.625 140.971 376.625 224.402 416.875 302.08C437 339.481 460 371.127 488.75 391.266C511.75 408.527 537.625 417.158 554.875 411.404C560.625 411.404 569.25 414.281 569.25 420.035C569.25 428.666 566.375 434.42 560.625 434.42C554.875 434.42 552 437.297 546.25 437.297Z" clip-rule="evenodd"></path>
  <path fill="#E5B144" d="M747.778 540.867H649.75V636.389H747.778V540.867Z"></path>
  <path fill="#FFC54D" fill-rule="evenodd" d="M698.625 561.006C638.25 561.006 583.625 503.467 540.5 397.02C503.125 293.449 480.125 155.355 480.125 11.5078C480.125 5.75391 485.875 0 491.625 0H902.75C908.5 0 914.25 5.75391 914.25 11.5078C914.25 155.355 891.25 293.449 853.875 397.02C813.625 503.467 756.125 561.006 698.625 561.006Z" clip-rule="evenodd"></path>
  <path fill="#C19D72" fill-rule="evenodd" d="M859.625 756.639C753.25 756.639 632.5 756.639 537.625 756.639C531.875 756.639 526.125 750.885 526.125 745.131V690.469C526.125 655.945 554.875 627.176 589.375 627.176H805C839.5 627.176 871.125 655.945 871.125 690.469V745.131C871.125 750.885 865.375 756.639 859.625 756.639Z" clip-rule="evenodd"></path>
  <path fill="#C19D72" fill-rule="evenodd" d="M945.875 822.809H448.5C442.75 822.809 437 817.055 437 811.301V776.777C437 753.762 457.125 733.623 485.875 733.623H908.5C934.375 733.623 957.375 753.762 957.375 776.777V811.301C957.375 817.055 951.625 822.809 945.875 822.809Z" clip-rule="evenodd"></path>
  <path fill="#EFA328" fill-rule="evenodd" d="M810.75 230.156C805 241.664 802.125 250.295 796.375 258.926L810.75 247.418C813.625 244.541 813.625 241.664 813.625 235.91C810.75 233.033 810.75 233.033 810.75 230.156Z" clip-rule="evenodd"></path>
  <path fill="#FFC54D" fill-rule="evenodd" d="M937.25 1473H457.125C445.625 1473 437 1464.37 437 1452.86V822.809H957.375V1452.86C957.375 1464.37 948.75 1473 937.25 1473Z" clip-rule="evenodd"></path>
  <path fill="#3B7B36" d="M956.561 802.67H437V822.537H956.561V802.67Z"></path>
</svg>
