<svg xmlns="http://www.w3.org/2000/svg" xml:space="preserve" viewBox="0 0 48 48" id="warning">
  <path fill="#fcc72d" d="M46.98 38.43 26.92 5.96c-1.34-2.17-4.5-2.17-5.84 0L1.02 38.43c-1.41 2.29.23 5.24 2.92 5.24h40.12c2.69 0 4.33-2.95 2.92-5.24z"></path>
  <path fill="#f4b519" d="M46.98 38.43 26.92 5.96c-.89-1.45-2.59-1.91-4.02-1.42.71.24 1.37.7 1.82 1.42l20.06 32.47c1.41 2.29-.23 5.24-2.92 5.24h2.21c2.68 0 4.32-2.95 2.91-5.24zm-24.39-7.67h-.13c-1.65 0-2.99-1.34-2.99-2.99V17.64c0-1.65 1.34-2.99 2.99-2.99h.13c1.65 0 2.99 1.34 2.99 2.99v10.13c0 1.65-1.34 2.99-2.99 2.99zm0 8.86h-.13c-1.65 0-2.99-1.34-2.99-2.99v-.13c0-1.65 1.34-2.99 2.99-2.99h.13c1.65 0 2.99 1.34 2.99 2.99v.13c0 1.65-1.34 2.99-2.99 2.99z"></path>
  <path fill="#2b3b4e" d="M24.06 30.76h-.13c-1.65 0-2.99-1.34-2.99-2.99V17.64c0-1.65 1.34-2.99 2.99-2.99h.13c1.65 0 2.99 1.34 2.99 2.99v10.13c0 1.65-1.34 2.99-2.99 2.99zm0 8.86h-.13c-1.65 0-2.99-1.34-2.99-2.99v-.13c0-1.65 1.34-2.99 2.99-2.99h.13c1.65 0 2.99 1.34 2.99 2.99v.13c0 1.65-1.34 2.99-2.99 2.99z"></path>
</svg>
