<svg xmlns="http://www.w3.org/2000/svg" viewBox="0 0 256 256" id="crying">
  <path fill="#FFA91A" d="m142.501 28.573 26.653 54.006 59.599 8.66c12.303 1.788 17.216 16.907 8.313 25.585l-43.126 42.038 10.181 59.358c2.102 12.254-10.76 21.598-21.764 15.813l-53.307-28.025-53.307 28.025c-11.004 5.785-23.866-3.559-21.764-15.813l10.181-59.358-43.126-42.038c-8.903-8.678-3.99-23.798 8.313-25.585l59.599-8.66 26.653-54.006c5.502-11.149 21.4-11.149 26.902 0z"></path>
  <path fill="#FFC91D" d="M94.324 87.234a2 2 0 0 1-1.792-2.886l19.03-38.56a2 2 0 1 1 3.587 1.771l-19.03 38.56a1.999 1.999 0 0 1-1.795 1.115zm22.571-45.733a2 2 0 0 1-1.792-2.885l.288-.584a2 2 0 0 1 3.587 1.769l-.288.584a2 2 0 0 1-1.795 1.116z"></path>
  <path fill="#F79219" d="M230.94 91.717c1.533 5.028.5 10.844-3.874 15.107l-39.361 38.368a10 10 0 0 0-2.876 8.851l9.292 54.176c2.102 12.254-10.76 21.598-21.764 15.813l-48.653-25.579a9.998 9.998 0 0 0-9.307 0l-48.653 25.579c-3.795 1.995-7.81 2.19-11.356 1.088 2.568 8.482 12.552 13.541 21.356 8.912l53.307-28.025 53.307 28.025c11.004 5.785 23.866-3.559 21.764-15.813l-10.181-59.358 43.126-42.038c8.354-8.142 4.541-21.958-6.127-25.106z"></path>
  <path fill="#EF7816" d="M234.382 93.236c3.398 5.6 3.118 13.292-2.316 18.588l-39.361 38.368a10 10 0 0 0-2.876 8.851l9.292 54.176c2.102 12.254-10.76 21.598-21.764 15.813l-48.653-25.579a9.998 9.998 0 0 0-9.307 0l-48.653 25.579c-5.104 2.683-10.606 2.108-14.831-.499 3.87 6.319 12.286 9.466 19.831 5.499l53.307-28.025 53.307 28.025c11.004 5.785 23.866-3.559 21.764-15.813l-10.181-59.358 43.126-42.038c7.378-7.192 5.26-18.803-2.685-23.587z"></path>
  <circle cx="156.039" cy="121.644" r="10.568" fill="#995222"></circle>
  <circle cx="102.06" cy="121.644" r="10.568" fill="#995222"></circle>
  <path fill="#995222" d="M77.972 113.295a4 4 0 0 1-2.098-7.409l22.163-13.611a4.001 4.001 0 0 1 4.187 6.817l-22.163 13.611a3.977 3.977 0 0 1-2.089.592zm102.155 0a3.977 3.977 0 0 1-2.089-.592l-22.163-13.611a4 4 0 0 1 4.187-6.817l22.163 13.611a4 4 0 0 1-2.098 7.409zM150.17 166.907a3.988 3.988 0 0 1-2.81-1.153c-8.728-8.615-27.894-8.614-36.621 0a3.999 3.999 0 0 1-5.657-.037 4 4 0 0 1 .037-5.657c11.854-11.7 36.008-11.7 47.861 0a4 4 0 0 1-2.81 6.847z"></path>
  <path fill="#5E9CF7" d="M189.561 136.087c3.064 5.307 1.246 12.092-4.061 15.156s-12.092 1.246-15.156-4.061c-2.352-4.074-.787-14.44.067-19.037a1.995 1.995 0 0 1 2.63-1.518c4.408 1.558 14.168 5.386 16.52 9.46zm-121.023 0c-3.064 5.307-1.246 12.092 4.061 15.156s12.092 1.246 15.156-4.061c2.352-4.074.787-14.44-.067-19.037a1.994 1.994 0 0 0-2.629-1.518c-4.409 1.558-14.169 5.386-16.521 9.46z"></path>
  <path fill="#FFA91A" d="m204.578 58.573 1.139.307c.893.24.893 1.507 0 1.747l-1.139.307a20.916 20.916 0 0 0-14.76 14.76l-.307 1.139c-.24.893-1.507.893-1.747 0l-.307-1.139a20.916 20.916 0 0 0-14.76-14.76l-1.139-.307c-.893-.24-.893-1.507 0-1.747l1.139-.307a20.916 20.916 0 0 0 14.76-14.76l.307-1.139c.24-.893 1.507-.893 1.747 0l.307 1.139a20.916 20.916 0 0 0 14.76 14.76z"></path>
  <path fill="#FFC91D" d="M195.751 59.25c.515.139.515.869 0 1.007a9.367 9.367 0 0 0-6.61 6.61c-.139.515-.869.515-1.007 0a9.367 9.367 0 0 0-6.61-6.61c-.515-.139-.515-.869 0-1.007a9.367 9.367 0 0 0 6.61-6.61c.139-.515.869-.515 1.007 0a9.369 9.369 0 0 0 6.61 6.61z"></path>
  <path fill="#FFA91A" d="m77.578 42.573 1.139.307c.893.24.893 1.507 0 1.747l-1.139.307a20.916 20.916 0 0 0-14.76 14.76l-.307 1.139c-.24.893-1.507.893-1.747 0l-.307-1.139a20.916 20.916 0 0 0-14.76-14.76l-1.139-.307c-.893-.24-.893-1.507 0-1.747l1.139-.307a20.916 20.916 0 0 0 14.76-14.76l.307-1.139c.24-.893 1.507-.893 1.747 0l.307 1.139a20.916 20.916 0 0 0 14.76 14.76z"></path>
  <path fill="#FFC91D" d="M68.751 43.25c.515.139.515.869 0 1.007a9.367 9.367 0 0 0-6.61 6.61c-.139.515-.869.515-1.007 0a9.367 9.367 0 0 0-6.61-6.61c-.515-.139-.515-.869 0-1.007a9.367 9.367 0 0 0 6.61-6.61c.139-.515.869-.515 1.007 0a9.369 9.369 0 0 0 6.61 6.61z"></path>
  <path fill="#FFA91A" d="m48.078 166.073 1.139.307c.893.24.893 1.507 0 1.747l-1.139.307a20.916 20.916 0 0 0-14.76 14.76l-.307 1.139c-.24.893-1.507.893-1.747 0l-.307-1.139a20.916 20.916 0 0 0-14.76-14.76l-1.139-.307c-.893-.24-.893-1.507 0-1.747l1.139-.307a20.916 20.916 0 0 0 14.76-14.76l.307-1.139c.24-.893 1.507-.893 1.747 0l.307 1.139a20.916 20.916 0 0 0 14.76 14.76z"></path>
  <path fill="#FFC91D" d="M39.251 166.75c.515.139.515.869 0 1.007a9.367 9.367 0 0 0-6.61 6.61c-.139.515-.869.515-1.007 0a9.367 9.367 0 0 0-6.61-6.61c-.515-.139-.515-.869 0-1.007a9.367 9.367 0 0 0 6.61-6.61c.139-.515.869-.515 1.007 0a9.369 9.369 0 0 0 6.61 6.61z"></path>
</svg>
