<svg xmlns="http://www.w3.org/2000/svg" width="512" height="512" id="phone">
  <path fill="#434A54" d="M106.665 64.001c-5.891 0-10.664 4.773-10.664 10.664v21.336c0 5.891 4.773 10.664 10.664 10.664s10.672-4.773 10.672-10.664V74.665c0-5.891-4.781-10.664-10.672-10.664zm0 53.336c-5.891 0-10.664 4.773-10.664 10.664v42.664c0 5.891 4.773 10.672 10.664 10.672s10.672-4.781 10.672-10.672v-42.664c0-5.891-4.781-10.664-10.672-10.664zm0 74.664c-5.891 0-10.664 4.773-10.664 10.663v42.672c0 5.891 4.773 10.664 10.664 10.664s10.672-4.773 10.672-10.664v-42.672c0-5.89-4.781-10.663-10.672-10.663zm298.678-64c-5.906 0-10.688 4.773-10.688 10.664v42.672c0 5.891 4.781 10.664 10.688 10.664 5.875 0 10.656-4.773 10.656-10.664v-42.672c0-5.891-4.781-10.664-10.656-10.664z"></path>
  <path fill="#434A54" d="M149.337 501.326c-17.648 0-32-14.344-32-31.999V42.665c0-17.64 14.352-31.999 32-31.999h213.318c17.656 0 32 14.359 32 31.999v426.662c0 17.655-14.344 31.999-32 31.999H149.337z"></path>
  <path fill="#5D9CEC" d="M117.337 74.665h277.318v341.334H117.337z"></path>
  <path fill="#656D78" d="M362.655.002H149.337c-23.57 0-42.672 19.102-42.672 42.663v426.662c0 23.562 19.102 42.671 42.672 42.671h213.318c23.578 0 42.688-19.109 42.688-42.671V42.665c0-23.561-19.11-42.663-42.688-42.663zm32 469.325c0 17.655-14.344 31.999-32 31.999H149.337c-17.648 0-32-14.344-32-31.999V42.665c0-17.64 14.352-31.999 32-31.999h213.318c17.656 0 32 14.359 32 31.999v426.662z"></path>
  <path fill="#656D78" d="M256 426.671c-17.672 0-32 14.328-32 32s14.328 31.999 32 31.999c17.671 0 32-14.327 32-31.999s-14.328-32-32-32zm0 42.656c-5.883 0-10.664-4.781-10.664-10.656 0-5.891 4.781-10.672 10.664-10.672 5.882 0 10.664 4.781 10.664 10.672 0 5.875-4.781 10.656-10.664 10.656z"></path>
  <path fill="#5D9CEC" d="M213.336 42.665c0 5.891-4.781 10.672-10.672 10.672S192 48.556 192 42.665s4.773-10.664 10.664-10.664 10.672 4.773 10.672 10.664z"></path>
  <path d="M277.344 32.001h-42.679c-5.891 0-10.664 4.773-10.664 10.664s4.773 10.672 10.664 10.672h42.679c5.875 0 10.656-4.781 10.656-10.672s-4.781-10.664-10.656-10.664z" opacity=".2"></path>
  <path fill="#FFF" d="M254.665 416.108h-61.329l64.001-341.443h61.319z" opacity=".1"></path>
</svg>
