<svg xmlns="http://www.w3.org/2000/svg" width="163.839" height="163.839" fill-rule="evenodd" clip-rule="evenodd" image-rendering="optimizeQuality" shape-rendering="geometricPrecision" text-rendering="geometricPrecision" viewBox="0 0 1707 1707" id="brain">
  <path fill="#ffc39c" d="M1191 1707l-548 0c-13,0 -23,-11 -23,-23 0,-132 -31,-138 -74,-146 -73,-14 -129,-41 -133,-249l-138 0c-7,0 -15,-3 -19,-10 -4,-7 -5,-15 -1,-22 7,-17 18,-38 29,-60 35,-72 83,-169 83,-220 0,-45 6,-91 17,-135 3,-12 16,-20 28,-17 7,2 12,6 15,11l916 -107c-3,-10 1,-21 11,-26 11,-6 25,-2 31,9 45,81 69,172 69,265 0,186 -59,256 -116,323 -61,72 -124,147 -124,384 0,12 -11,23 -23,23z"></path>
  <path fill="#f77474" d="M1001 1173c-63,0 -118,-34 -148,-85 -29,51 -85,85 -148,85 -72,0 -136,-45 -160,-111 -85,-10 -151,-83 -151,-170 0,-8 0,-16 1,-24 -48,-35 -76,-90 -76,-151 0,-60 29,-116 77,-151 -1,-10 -2,-20 -2,-30 0,-87 66,-160 150,-170 24,-68 88,-114 161,-114 63,0 119,35 148,86 30,-51 85,-86 148,-86 74,0 138,46 162,114 84,10 150,83 150,170 0,10 -1,20 -3,30 49,35 78,91 78,151 0,61 -28,116 -77,151 1,8 2,16 2,24 0,87 -66,160 -151,170 -25,66 -88,111 -161,111z"></path>
  <path fill="#e25757" d="M876 1119c-8-10-16-20-23-31-6 11-14 21-23 31l0-812c9 9 17 20 23 31 7-11 15-22 23-31l0 812zM1151 339c4 9 8 18 12 27 12 1 23 4 34 8-2 1-4 2-7 2l0 0c0 0-46 6-70 38-12 18-17 40-12 67 2 12-5 23-17 26 0 1-1 1-2 1-12 2-24-6-26-19-7-40 0-75 21-102 19-26 45-40 67-48zM509 374c11-4 23-7 35-8 3-9 7-18 12-27 21 8 48 22 67 48 21 27 28 62 21 102-2 13-14 21-27 19 0 0-1 0-2-1-11-3-18-14-16-26 4-27 0-49-13-67-23-32-69-38-69-38l0 0c-3 0-5-1-8-2zM1329 853c-5 5-11 10-18 15 1 8 2 16 2 24 0 3 0 6 0 9-32 1-59-8-81-20-40-23-64-62-73-89-4-12 3-25 15-29 12-4 25 3 29 15 1 3 32 90 126 75zM394 901c0-3 0-6 0-9 0-8 0-16 1-24-6-5-12-10-18-15 95 15 126-72 127-75 4-12 17-19 29-15 12 4 18 17 14 29-8 27-32 66-72 89-22 12-49 21-81 20zM1127 731c-21 0-43-5-61-16-59-34-79-110-46-169 7-11 21-14 32-8 11 6 15 20 8 31-21 37-8 85 28 106 16 9 35 12 53 9 12-2 24 6 26 19 2 12-6 24-19 26-7 2-14 2-21 2z"></path>
  <path fill="#e25757" d="M951 754c-7 0-15-1-22-2-13-2-21-14-19-26 3-13 14-21 27-19 37 7 73-14 86-50 4-12 17-18 29-14 12 4 18 18 14 29-17 50-64 82-115 82zM569 728c-7 0-14 0-21-2-12-2-21-14-18-26 2-13 14-21 26-19 18 3 36 0 52-9 37-21 50-69 28-106-6-11-2-25 9-31 11-6 25-2 31 8 34 59 14 135-45 169-19 11-40 16-62 16z"></path>
  <path fill="#e25757" d="M746 751c-51 0-98-32-115-81-5-12 2-25 13-30 12-4 26 2 30 14 12 36 48 57 86 50 12-2 24 6 26 19 3 12-6 24-18 26-8 2-15 2-22 2zM853 121c-12 0-23-10-23-22l0-76c0-13 11-23 23-23 13 0 23 10 23 23l0 76c0 12-10 22-23 22zM1160 204c-3 0-7-1-11-3-11-7-15-21-8-32l37-65c7-11 21-15 32-9 11 7 14 21 8 32l-38 65c-4 8-12 12-20 12zM1385 429c-8 0-15-5-20-12-6-11-2-25 9-31l65-38c11-6 25-3 32 8 6 11 2 25-9 32l-65 37c-4 3-8 4-12 4zM546 204c-8 0-15-4-20-12l-37-65c-7-11-3-25 8-32 11-6 25-2 31 9l38 65c6 11 3 25-8 32-4 2-8 3-12 3zM321 429c-4 0-7-1-11-3l-66-38c-11-7-14-21-8-32 6-11 20-14 31-8l66 38c11 6 15 20 8 31-4 7-12 12-20 12z"></path>
  <g>
    <path fill="#e25757" d="M1076 1042c-22 0-43-5-62-16-59-34-79-110-45-168 6-11 20-15 31-9 11 7 15 21 8 32-21 36-8 84 29 105 16 9 34 13 52 9 12-2 24 7 26 19 3 12-6 24-18 27-7 1-14 1-21 1zM631 1042c22 0 43-5 62-16 59-34 79-110 45-168-6-11-20-15-31-9-11 7-15 21-9 32 22 36 9 84-28 105-16 9-34 13-52 9-13-2-25 7-27 19-2 12 6 24 19 27 7 1 14 1 21 1z"></path>
  </g>
</svg>
