<svg xmlns="http://www.w3.org/2000/svg" viewBox="0 0 512 512" id="dad">
  <path fill="#ea9d2d" d="M296,341.859l147.7,73.853A60,60,0,0,1,476.312,461.2L480,488H32l3.688-26.8A60,60,0,0,1,68.3,415.712L216,341.859Z"></path>
  <path fill="#ea9d2d" d="M68.29 415.71L80 409.86V488H32l3.69-26.8A60.034 60.034 0 0 1 68.29 415.71zM480 488H432V409.86l11.71 5.85a60.034 60.034 0 0 1 32.6 45.49z"></path>
  <polygon fill="#ea9d2d" points="358.2 372.96 256 456 153.8 372.96 188.22 355.75 216 341.86 296 341.86 328.42 358.07 358.2 372.96"></polygon>
  <polygon fill="#f6bb92" points="312 349.859 296 341.859 296 309.859 216 309.859 216 341.859 200 349.859 256 373.859 312 349.859"></polygon>
  <path fill="#f6bb92" d="M296,309.86V321.5c-.08.06-.17.11-.25.17A70.9,70.9,0,0,1,216,321.5V309.86Z"></path>
  <path fill="#e6af89" d="M296,309.86V321.5c-.08.06-.17.11-.25.17A70.9,70.9,0,0,1,216,321.5V309.86Z"></path>
  <path fill="#cbcbcb" d="M80 409.86V488H32l3.69-26.8a60.034 60.034 0 0 1 32.6-45.49zM480 488H432V409.86l11.71 5.85a60.034 60.034 0 0 1 32.6 45.49z"></path>
  <path fill="#f6bb92" d="M256,325.859h0a70.9,70.9,0,0,1-65.827-44.566h0A198.16,198.16,0,0,1,176,207.7V144a80,80,0,0,1,80-80h0a80,80,0,0,1,80,80v63.7a198.16,198.16,0,0,1-14.173,73.6h0A70.9,70.9,0,0,1,256,325.859Z"></path>
  <path fill="#683b0d" d="M304,184H280a8,8,0,0,1,0-16h24a8,8,0,0,1,0,16Z"></path>
  <circle cx="290" cy="199.859" r="10" fill="#683b0d"></circle>
  <path fill="#683b0d" d="M232,184H208a8,8,0,0,1,0-16h24a8,8,0,0,1,0,16Z"></path>
  <circle cx="222" cy="199.859" r="10" fill="#683b0d"></circle>
  <path fill="#e6af89" d="M264,248H248a8,8,0,0,1-8-8V226.141a8,8,0,1,1,16,0V232h8a8,8,0,0,1,0,16Z"></path>
  <path fill="#f6bb92" d="M179 173.859H164.944A20.944 20.944 0 0 0 144 194.8v14.111a20.948 20.948 0 0 0 2.211 9.367h0a20.945 20.945 0 0 0 18.733 11.577H180zM333 173.859h14.056A20.944 20.944 0 0 1 368 194.8v14.111a20.948 20.948 0 0 1-2.211 9.367h0a20.945 20.945 0 0 1-18.733 11.577H332z"></path>
  <path fill="#683b0d" d="M248 240h16a32 32 0 0 1 32 32v0a0 0 0 0 1 0 0H216a0 0 0 0 1 0 0v0a32 32 0 0 1 32-32zM336 184l-1-4.017A74.61 74.61 0 0 0 304 136h0l-.2.079a224.666 224.666 0 0 1-82.67 16.068l-34.175.117a43.2 43.2 0 0 1-38.778-23.83l-.778-1.55a42.472 42.472 0 0 1 3.492-43.855l.574-.8A82.325 82.325 0 0 1 218.34 47.982c9.23.006 18.882.01 27.737.012A81.947 81.947 0 0 1 304 72h0l3.238-.009a33.435 33.435 0 0 1 30 18.482l.3.611a87.214 87.214 0 0 1 6.635 60.248C340.114 167.543 336 184 336 184z"></path>
  <polygon fill="#cbcbcb" points="224 392 256 416 288 392 256 373.859 224 392"></polygon>
  <polygon fill="#c38325" points="358.2 372.96 256 456 153.8 372.96 188.22 355.75 256 416 328.42 358.07 358.2 372.96"></polygon>
  <polygon fill="#eaeae8" points="208 336 256 373.859 192 424 184 357.859 208 336"></polygon>
  <polygon fill="#eaeae8" points="304 336 256 373.859 320 424 328 357.859 304 336"></polygon>
</svg>
