<svg xmlns="http://www.w3.org/2000/svg" viewBox="0 0 512 512" id="pastor">
  <path fill="#a8a8a8" d="m128 376 3.619-10.856a47.588 47.588 0 0 0 1.021-26.585l-.909-3.634a47.578 47.578 0 0 1 1.983-29.209l4.572-11.432a47.578 47.578 0 0 0 1.983-29.209 47.576 47.576 0 0 1 3.6-32.817L152 216v-98.379a53.9 53.9 0 0 1 24-44.844l6.535-13.07a53.892 53.892 0 0 1 29.282-26.361l9.06-3.4a93.417 93.417 0 0 1 69.6 1.605 93.419 93.419 0 0 1 36.149 27.508l15.508 19.385a53.831 53.831 0 0 0 3.976 4.442A47.421 47.421 0 0 1 360 116.419v33.74a37.7 37.7 0 0 0 5.542 19.675l5.732 9.368a48.626 48.626 0 0 1 3.671 43.437 37.7 37.7 0 0 0 2.675 33.395l4.76 7.932a37.7 37.7 0 0 1 2.675 33.395l-2.768 6.921a37.7 37.7 0 0 0 1.284 30.859 37.7 37.7 0 0 1 0 33.718L368 400Z"></path>
  <path fill="#cbcbcb" d="m296 326.636 150.883 88.493a60 60 0 0 1 29.086 43.576L480 488H32l4.453-40.835A60 60 0 0 1 69.267 400L216 328Z"></path>
  <path fill="#fdc9a6" d="M256 312.777a70.9 70.9 0 0 1-65.827-44.567A198.16 198.16 0 0 1 176 194.614v-34.158a122.96 122.96 0 0 1 8.794-45.664 29.422 29.422 0 0 1 26.6-18.486 29.423 29.423 0 0 1 21.518 8.609L248.3 120.3a76.229 76.229 0 0 0 37.365 20.511l8.731 1.941A53.122 53.122 0 0 1 336 194.614a198.16 198.16 0 0 1-14.173 73.6A70.9 70.9 0 0 1 256 312.777Z"></path>
  <path fill="#eaeae8" d="m208 328.777 56 32L192 408l-8.942-70.671L208 328.777z"></path>
  <path fill="#eaeae8" d="m304 328.777-56 32L320 408l8.708-68.822L304 328.777z"></path>
  <path fill="#eaeae8" d="M232 376h48v112h-48z"></path>
  <circle cx="256" cy="416" r="8" fill="#656666"></circle>
  <circle cx="256" cy="448" r="8" fill="#656666"></circle>
  <path fill="none" stroke="#000" stroke-linecap="round" stroke-linejoin="round" stroke-width="16" d="m312 334.636-16-8v-32h-80v32l-16 8"></path>
  <path fill="#a8a8a8" d="M304 168.777h-24a8 8 0 0 1 0-16h24a8 8 0 0 1 0 16Z"></path>
  <circle cx="290" cy="184.636" r="10" fill="#a8a8a8"></circle>
  <path fill="#a8a8a8" d="M232 168.777h-24a8 8 0 0 1 0-16h24a8 8 0 0 1 0 16Z"></path>
  <circle cx="222" cy="184.636" r="10" fill="#a8a8a8"></circle>
  <path fill="#e6af89" d="M248 232a8 8 0 0 1-7.513-10.751l8-21.859a8 8 0 1 1 15.026 5.5l-8 21.859A8 8 0 0 1 248 232Z"></path>
  <path fill="#fdc9a6" d="M176 158.636h-11.056A20.944 20.944 0 0 0 144 179.581v14.111a20.948 20.948 0 0 0 2.211 9.367 20.945 20.945 0 0 0 18.733 11.577H184Z"></path>
  <path fill="#961b20" d="M152 352v136H80v-96l72-40zM360 352v136h72v-96l-72-40z"></path>
  <path fill="#b2b2b2" d="m280.285 234.4-6.873 2.486a25.626 25.626 0 0 0-32.873 2.324v-7.474A29.366 29.366 0 0 1 220.118 240h-.165a29.366 29.366 0 0 1-20.508-8.348L176 208.777v97.06a80 80 0 0 0 50.289 74.278 80 80 0 0 0 59.422 0A80 80 0 0 0 336 305.837v-97.06l-15.184 19.753A29.365 29.365 0 0 1 297.533 240a29.366 29.366 0 0 1-17.248-5.6Z"></path>
  <path fill="#b2b2b2" d="M224 320v56a8.064 8.064 0 0 1-.55 2.92 79.746 79.746 0 0 1-15.45-9.08V320a8 8 0 0 1 16 0zm40 0v65.43a78.254 78.254 0 0 1-16 0V320a8 8 0 0 1 16 0zm40 0v49.84a79.619 79.619 0 0 1-16 9.32V320a8 8 0 0 1 16 0z"></path>
  <path fill="#e6af89" d="M272 264.777h-32a8 8 0 0 1 0-16h32a8 8 0 0 1 0 16zM264 288h-16a8 8 0 0 1 0-16h16a8 8 0 0 1 0 16z"></path>
  <path fill="#cbcbcb" d="m200 236 2.664 7.991A29.262 29.262 0 0 0 230.425 264a29.271 29.271 0 0 0 13.087-3.089L256 254.667l12.488 6.244A29.271 29.271 0 0 0 281.575 264a29.262 29.262 0 0 0 27.761-20.009L312 236h-7.13a88.406 88.406 0 0 1-39.537-9.333 33.97 33.97 0 0 0-18.666 0A88.406 88.406 0 0 1 207.13 236Z"></path>
  <path fill="#a8a8a8" d="M224 320v56a8.064 8.064 0 0 1-.55 2.92 79.746 79.746 0 0 1-15.45-9.08V320a8 8 0 0 1 16 0zm40 0v65.43a78.254 78.254 0 0 1-16 0V320a8 8 0 0 1 16 0zm40 0v49.84a79.619 79.619 0 0 1-16 9.32V320a8 8 0 0 1 16 0z"></path>
</svg>
