<svg xmlns="http://www.w3.org/2000/svg" viewBox="0 0 512 512" id="writer">
  <path fill="#683b0d" d="M414.848 410.851 300.337 344h-80l-114.51 66.851a60 60 0 0 0-25.06 28.56L60.337 488h400l-20.43-48.589a60 60 0 0 0-25.059-28.56Z"></path>
  <path fill="#cbcbcb" d="m216 392-11.663 96H264v-96h-48z"></path>
  <path fill="#683b0d" d="M296 351.031 315.85 344c12.588 2.518 25.6-6.421 34.681-15.5a16.333 16.333 0 0 1 20.611-2.041 21.843 21.843 0 0 0 25.22-.7l7.276-5.457a16.336 16.336 0 0 0 3.79-22.129 16.336 16.336 0 0 1 2.041-20.612 28.511 28.511 0 0 0 5.341-32.911l-4.3-8.607a16.341 16.341 0 0 1-1.407-10.509l1.864-9.321a33.623 33.623 0 0 0-17.933-36.668 16.335 16.335 0 0 1-9.03-14.61 35.443 35.443 0 0 0-19.592-31.7l-5.262-2.631a16.335 16.335 0 0 1-8.713-11.407A70.216 70.216 0 0 0 315.2 71.324l-.782-.427a122 122 0 0 0-116.84 0l-.782.427a70.216 70.216 0 0 0-35.229 47.876 16.335 16.335 0 0 1-8.713 11.407l-5.262 2.631A35.443 35.443 0 0 0 128 164.936a16.335 16.335 0 0 1-9.03 14.61 33.623 33.623 0 0 0-17.933 36.668l1.864 9.321a16.341 16.341 0 0 1-1.407 10.509l-4.3 8.607a28.511 28.511 0 0 0 5.341 32.911 16.336 16.336 0 0 1 2.041 20.612 16.336 16.336 0 0 0 3.79 22.129l7.276 5.457a21.843 21.843 0 0 0 25.22.7 16.333 16.333 0 0 1 20.611 2.041A38.4 38.4 0 0 0 196.15 339L216 351.031l40 8Z"></path>
  <path fill="#ea9d2d" d="M176 328a54.626 54.626 0 0 1 38.627-16h90.746A54.626 54.626 0 0 1 344 328l-80 64Z"></path>
  <path fill="#fdc9a6" d="M192 184h-23.223a20.944 20.944 0 0 0-20.944 20.944v14.112a20.944 20.944 0 0 0 2.211 9.366A20.944 20.944 0 0 0 168.777 240H192zm136 0h22.889a20.944 20.944 0 0 1 20.944 20.944v14.112a20.944 20.944 0 0 1-2.211 9.366A20.944 20.944 0 0 1 350.888 240H328z"></path>
  <path fill="#e6af89" d="M219.833 312v32l-8 24 .808.4a106.424 106.424 0 0 0 95.192-.4l-8-24v-32Z"></path>
  <path fill="#fdc9a6" d="M202.63 292.133a210.874 210.874 0 0 1-21.789-93.351 39.5 39.5 0 0 1 29.849-38.3l9.9-2.5a48 48 0 0 0 32.838-28.718L260.337 112l6.906 17.265a48 48 0 0 0 32.838 28.718l9.9 2.5a39.5 39.5 0 0 1 29.849 38.3 210.887 210.887 0 0 1-21.788 93.351A64.356 64.356 0 0 1 260.337 328a64.356 64.356 0 0 1-57.707-35.867Z"></path>
  <path fill="#683b0d" d="M307.834 192a8.015 8.015 0 0 1-2.531-.412l-24-8a8 8 0 1 1 5.06-15.18l24 8A8 8 0 0 1 307.834 192Z"></path>
  <circle cx="293.833" cy="202" r="11" fill="#683b0d"></circle>
  <path fill="#683b0d" d="M212.336 192a8 8 0 0 1-2.577-15.575l23.5-8a8 8 0 1 1 5.156 15.146l-23.5 8a7.985 7.985 0 0 1-2.579.429Z"></path>
  <circle cx="225.833" cy="202" r="11" fill="#683b0d"></circle>
  <path fill="#e6af89" d="M260.687 280H248a8 8 0 0 1 0-16h12.687a19.185 19.185 0 0 0 13.656-5.657 8 8 0 0 1 11.314 11.314A35.082 35.082 0 0 1 260.687 280zm7.65-32h-16a8 8 0 0 1-8-8v-24a8 8 0 0 1 16 0v16h8a8 8 0 0 1 0 16z"></path>
  <path fill="#533222" d="M100.337 488v-32a8 8 0 0 1 16 0v32zm304 0v-32a8 8 0 0 1 16 0v32zM219.337 346l-15 142-48-48 63-94zM300.337 346l16 142 48-48-64-94z"></path>
  <path fill="#ea9d2d" d="M264 352h72v136h-72z"></path>
  <path fill="#fbb540" d="m344 384-6.1 3.325A162.984 162.984 0 0 1 176 384v-56a162.984 162.984 0 0 0 161.9 3.325L344 328Z"></path>
  <path fill="#ea9d2d" d="M256 387.867a84.013 84.013 0 0 1-26.53-4.277 8 8 0 0 1 5.06-15.18 68.319 68.319 0 0 0 42.94 0 8 8 0 0 1 5.06 15.18 84.013 84.013 0 0 1-26.53 4.277Z"></path>
</svg>
